<?xml version="1.0" standalone="no"?>
<!DOCTYPE svg PUBLIC "-//W3C//DTD SVG 20010904//EN"
 "http://www.w3.org/TR/2001/REC-SVG-20010904/DTD/svg10.dtd">
<svg version="1.0" xmlns="http://www.w3.org/2000/svg"
 width="700.000000pt" height="700.000000pt" viewBox="0 0 700.000000 700.000000"
 preserveAspectRatio="xMidYMid meet">
<metadata>
Created by potrace 1.14, written by Peter Selinger 2001-2017
</metadata>
<g transform="translate(0.000000,700.000000) scale(0.100000,-0.100000)"
fill="#000000" stroke="none">
<path d="M289 6987 c-97 -28 -198 -107 -240 -189 -43 -84 -49 -125 -44 -283 2
-83 6 -157 9 -165 2 -8 7 -40 11 -70 9 -86 24 -165 56 -294 67 -269 164 -495
298 -697 l59 -88 -52 -103 c-29 -57 -65 -132 -80 -168 -16 -36 -36 -83 -46
-105 -38 -86 -110 -300 -136 -400 -4 -16 -8 -34 -10 -40 -5 -16 -25 -98 -30
-120 -48 -237 -54 -277 -71 -465 -15 -165 -8 -592 12 -711 2 -13 6 -46 9 -74
9 -78 22 -152 51 -285 21 -96 91 -339 114 -395 5 -11 25 -65 46 -120 64 -170
213 -461 314 -615 214 -324 467 -601 775 -848 89 -72 367 -262 382 -262 4 0
15 -6 23 -14 26 -22 260 -140 391 -196 268 -115 597 -207 879 -246 25 -3 57
-8 71 -10 162 -25 683 -25 841 1 13 2 47 7 74 10 72 10 86 12 120 19 17 3 44
8 60 11 192 37 425 105 630 187 116 46 353 161 439 213 32 19 62 35 67 35 5 0
9 5 9 10 0 6 5 10 10 10 15 0 220 141 330 227 152 118 324 280 450 422 36 41
70 79 76 85 6 6 48 61 94 121 150 197 277 405 383 628 26 53 47 99 47 102 0 2
11 28 24 57 57 127 151 421 182 573 17 81 54 301 59 350 4 33 9 71 11 85 9 47
11 525 4 605 -15 157 -21 210 -25 225 -2 8 -7 35 -10 60 -39 296 -192 758
-346 1047 l-49 93 59 87 c230 342 372 820 375 1263 1 154 1 155 -31 222 -64
136 -188 218 -334 224 -118 4 -210 -31 -301 -117 -135 -127 -249 -218 -408
-324 -69 -46 -181 -113 -250 -149 l-125 -65 -80 55 c-248 171 -555 323 -850
422 -166 56 -424 120 -555 137 -14 2 -38 6 -55 9 -31 5 -69 10 -190 23 -146
15 -631 8 -731 -11 -10 -2 -41 -7 -69 -10 -502 -65 -1058 -279 -1480 -570
l-80 -55 -125 65 c-230 120 -452 280 -668 482 -73 67 -152 102 -247 107 -49 3
-98 0 -126 -8z"/>
</g>
</svg>
